<?xml version="1.0" encoding="UTF-8"?>
<svg id="Layer_1" data-name="Layer 1" xmlns="http://www.w3.org/2000/svg" viewBox="0 0 19.57 19.57">
  <path id="Icon_awesome-search" data-name="Icon awesome-search" d="M17.57,15.62l-3.11-3.11c-.14-.14-.33-.22-.53-.22h-.51c2.21-2.83,1.71-6.91-1.12-9.12-2.83-2.21-6.91-1.71-9.12,1.12-2.21,2.83-1.71,6.91,1.12,9.12,2.35,1.84,5.65,1.84,8,0v.51c0,.2.08.39.22.53l3.12,3.12c.29.29.76.29,1.06,0,0,0,0,0,0,0l.88-.88c.29-.29.29-.77,0-1.06h0ZM8.28,12.29c-2.21,0-4-1.79-4-4s1.79-4,4-4,4,1.79,4,4-1.79,4-4,4Z" stroke-width="0"/>
</svg>