<?xml version="1.0" encoding="UTF-8" standalone="no"?>
<!DOCTYPE svg PUBLIC "-//W3C//DTD SVG 1.1//EN" "http://www.w3.org/Graphics/SVG/1.1/DTD/svg11.dtd">
<svg width="100%" height="100%" viewBox="0 0 1627 896" version="1.1" xmlns="http://www.w3.org/2000/svg" xmlns:xlink="http://www.w3.org/1999/xlink" xml:space="preserve" xmlns:serif="http://www.serif.com/" style="fill-rule:evenodd;clip-rule:evenodd;stroke-miterlimit:2;">
    <g id="Artboard1" transform="matrix(1,0,0,1,-935.613,-779.442)">
        <rect x="935.613" y="779.442" width="1626.21" height="895.909" style="fill:none;"/>
        <g transform="matrix(1,0,0,1,0.612786,0.441636)">
            <path d="M1333.2,1615.71L1333.2,1650.01" style="fill:none;stroke:white;stroke-width:12.5px;"/>
            <path d="M1334.28,840.241L1334.28,806.666" style="fill:none;stroke:white;stroke-width:12.5px;"/>
            <g transform="matrix(0.941303,0,0,1.01412,76.1031,-18.2703)">
                <path d="M1296.55,1067.81L1296.55,1390.3L939.594,1390.3L939.594,1067.81L1296.55,1067.81ZM1283.27,1080.14L952.874,1080.14L952.874,1377.97L1283.27,1377.97L1283.27,1080.14Z" style="fill:white;"/>
            </g>
            <g id="Obrecz">
                <g transform="matrix(1,0,0,1,-2.27741,-0.910963)">
                    <path d="M1049.7,1196.71C1067.67,1196.71 1082.27,1211.31 1082.27,1229.28C1082.27,1247.25 1067.67,1261.85 1049.7,1261.85C1031.72,1261.85 1017.13,1247.25 1017.13,1229.28C1017.13,1211.31 1031.72,1196.71 1049.7,1196.71ZM1049.7,1209.21C1038.62,1209.21 1029.63,1218.2 1029.63,1229.28C1029.63,1240.36 1038.62,1249.35 1049.7,1249.35C1060.78,1249.35 1069.77,1240.36 1069.77,1229.28C1069.77,1218.2 1060.78,1209.21 1049.7,1209.21Z" style="fill:white;"/>
                </g>
                <path d="M992.537,1181.23L992.537,1275.51" style="fill:none;stroke:white;stroke-width:12.5px;stroke-miterlimit:1.5;"/>
                <path d="M992.992,1227.23L1019.14,1227.23" style="fill:none;stroke:white;stroke-width:12.5px;stroke-miterlimit:1.5;"/>
            </g>
            <g transform="matrix(1,0,0,1,1.12359,0)">
                <path d="M959.455,1602.77L959.455,851.708L1076.82,851.708C1284.09,851.708 1452.36,1019.98 1452.36,1227.24C1452.36,1434.5 1284.09,1602.77 1076.82,1602.77L959.455,1602.77ZM971.955,1590.27L1076.82,1590.27C1277.19,1590.27 1439.86,1427.6 1439.86,1227.24C1439.86,1026.88 1277.19,864.208 1076.82,864.208L971.955,864.208L971.955,1590.27Z" style="fill:white;"/>
            </g>
            <g id="Free-Throw-Circle" serif:id="Free Throw Circle">
                <g transform="matrix(0.914626,0,0,0.914626,106.209,107.071)">
                    <path d="M1292.84,1131.46C1345.38,1131.46 1388.04,1174.12 1388.04,1226.65C1388.04,1279.19 1345.38,1321.85 1292.84,1321.85" style="fill:none;stroke:white;stroke-width:13.67px;"/>
                </g>
                <g transform="matrix(-0.914626,0,0,0.914626,2468.23,107.071)">
                    <path d="M1292.84,1124.63L1292.84,1138.29C1295.18,1138.29 1297.49,1138.38 1299.78,1138.56L1300.84,1124.93C1298.2,1124.73 1295.54,1124.63 1292.84,1124.63ZM1316.66,1127.43L1313.48,1140.72C1318.02,1141.81 1322.42,1143.24 1326.66,1145L1331.9,1132.38C1327,1130.35 1321.91,1128.68 1316.66,1127.43ZM1346.16,1139.66L1339,1151.31C1342.96,1153.74 1346.7,1156.47 1350.21,1159.47L1359.1,1149.09C1355.05,1145.62 1350.72,1142.47 1346.16,1139.66ZM1370.41,1160.4L1360.03,1169.28C1363.03,1172.79 1365.76,1176.54 1368.19,1180.5L1379.83,1173.34C1377.03,1168.78 1373.88,1164.45 1370.41,1160.4ZM1387.12,1187.6L1374.5,1192.84C1376.26,1197.08 1377.69,1201.48 1378.78,1206.02L1392.07,1202.84C1390.82,1197.59 1389.15,1192.5 1387.12,1187.6ZM1394.56,1218.65L1380.94,1219.71C1381.12,1222.01 1381.21,1224.32 1381.21,1226.65C1381.21,1228.99 1381.12,1231.3 1380.94,1233.59L1394.56,1234.65C1394.77,1232.01 1394.87,1229.35 1394.87,1226.65C1394.87,1223.96 1394.77,1221.3 1394.56,1218.65ZM1392.07,1250.47L1378.78,1247.29C1377.69,1251.83 1376.26,1256.23 1374.5,1260.47L1387.12,1265.71C1389.15,1260.81 1390.82,1255.72 1392.07,1250.47ZM1379.83,1279.97L1368.19,1272.81C1365.76,1276.77 1363.03,1280.52 1360.03,1284.03L1370.41,1292.91C1373.88,1288.86 1377.03,1284.53 1379.83,1279.97ZM1359.1,1304.22L1350.22,1293.84C1346.7,1296.84 1342.96,1299.57 1339,1302L1346.16,1313.64C1350.72,1310.84 1355.05,1307.69 1359.1,1304.22ZM1331.9,1320.93L1326.66,1308.31C1322.42,1310.07 1318.02,1311.5 1313.48,1312.59L1316.66,1325.88C1321.91,1324.62 1327,1322.96 1331.9,1320.93ZM1300.84,1328.37L1299.78,1314.75C1297.49,1314.93 1295.18,1315.02 1292.84,1315.02L1292.84,1328.68C1295.54,1328.68 1298.2,1328.58 1300.84,1328.37Z" style="fill:white;"/>
                </g>
            </g>
        </g>
        <g transform="matrix(-1,0,0,1,3502.39,0.441636)">
            <g>
                <path id="marker-bottom" serif:id="marker bottom" d="M1333.2,1615.71L1333.2,1650.01" style="fill:none;stroke:white;stroke-width:12.5px;"/>
                <path id="marker-top" serif:id="marker top" d="M1334.28,840.241L1334.28,806.666" style="fill:none;stroke:white;stroke-width:12.5px;"/>
            </g>
            <g id="Paint" transform="matrix(0.941303,0,0,1.01412,76.1031,-18.2703)">
                <path d="M1296.55,1067.81L939.594,1067.81L939.594,1390.3L1296.55,1390.3L1296.55,1067.81ZM1283.27,1080.14L1283.27,1377.97L952.874,1377.97L952.874,1080.14L1283.27,1080.14Z" style="fill:white;"/>
            </g>
            <g id="Rim">
                <g transform="matrix(1,0,0,1,-2.27741,-0.910963)">
                    <path d="M1049.7,1196.71C1031.72,1196.71 1017.13,1211.31 1017.13,1229.28C1017.13,1247.25 1031.72,1261.85 1049.7,1261.85C1067.67,1261.85 1082.27,1247.25 1082.27,1229.28C1082.27,1211.31 1067.67,1196.71 1049.7,1196.71ZM1049.7,1209.21C1060.78,1209.21 1069.77,1218.2 1069.77,1229.28C1069.77,1240.36 1060.78,1249.35 1049.7,1249.35C1038.62,1249.35 1029.63,1240.36 1029.63,1229.28C1029.63,1218.2 1038.62,1209.21 1049.7,1209.21Z" style="fill:white;"/>
                </g>
                <path d="M992.537,1181.23L992.537,1275.51" style="fill:none;stroke:white;stroke-width:12.5px;stroke-miterlimit:1.5;"/>
                <path d="M992.992,1227.23L1016.95,1227.23" style="fill:none;stroke:white;stroke-width:12.5px;stroke-miterlimit:1.5;"/>
            </g>
            <path id="Three-Point-Line" serif:id="Three Point Line" d="M959.455,1602.77L1076.82,1602.77C1284.09,1602.77 1452.36,1434.5 1452.36,1227.24C1452.36,1019.98 1284.09,851.708 1076.82,851.708L959.455,851.708L959.455,1602.77ZM971.955,1590.27L971.955,864.208L1076.82,864.208C1277.19,864.208 1439.86,1026.88 1439.86,1227.24C1439.86,1427.6 1277.19,1590.27 1076.82,1590.27L971.955,1590.27Z" style="fill:white;"/>
            <g id="Free-Throw-Circle1" serif:id="Free Throw Circle" transform="matrix(1,0,0,1,-1.67198,-0.212807)">
                <g transform="matrix(0.914626,0,0,0.914626,106.209,107.071)">
                    <path d="M1292.84,1131.46C1345.38,1131.46 1388.04,1174.12 1388.04,1226.65C1388.04,1279.19 1345.38,1321.85 1292.84,1321.85" style="fill:none;stroke:white;stroke-width:13.67px;"/>
                </g>
                <g transform="matrix(-0.914626,0,0,0.914626,2468.23,107.071)">
                    <path d="M1292.84,1138.29L1292.84,1124.63C1295.54,1124.63 1298.2,1124.73 1300.84,1124.93L1299.78,1138.56C1297.49,1138.38 1295.18,1138.29 1292.84,1138.29ZM1313.48,1140.72L1316.66,1127.43C1321.91,1128.68 1327,1130.35 1331.9,1132.38L1326.66,1145C1322.42,1143.24 1318.02,1141.81 1313.48,1140.72ZM1339,1151.31L1346.16,1139.66C1350.72,1142.47 1355.05,1145.62 1359.1,1149.09L1350.21,1159.47C1346.7,1156.47 1342.96,1153.74 1339,1151.31ZM1360.03,1169.28L1370.41,1160.4C1373.88,1164.45 1377.03,1168.78 1379.83,1173.34L1368.19,1180.5C1365.76,1176.54 1363.03,1172.79 1360.03,1169.28ZM1374.5,1192.84L1387.12,1187.6C1389.15,1192.5 1390.82,1197.59 1392.07,1202.84L1378.78,1206.02C1377.69,1201.48 1376.26,1197.08 1374.5,1192.84ZM1380.94,1219.71L1394.56,1218.65C1394.77,1221.3 1394.87,1223.96 1394.87,1226.65C1394.87,1229.35 1394.77,1232.01 1394.56,1234.65L1380.94,1233.59C1381.12,1231.3 1381.21,1228.99 1381.21,1226.65C1381.21,1224.32 1381.12,1222.01 1380.94,1219.71ZM1378.78,1247.29L1392.07,1250.47C1390.82,1255.72 1389.15,1260.81 1387.12,1265.71L1374.5,1260.47C1376.26,1256.23 1377.69,1251.83 1378.78,1247.29ZM1368.19,1272.81L1379.83,1279.97C1377.03,1284.53 1373.88,1288.86 1370.41,1292.91L1360.03,1284.03C1363.03,1280.52 1365.76,1276.77 1368.19,1272.81ZM1350.22,1293.84L1359.1,1304.22C1355.05,1307.69 1350.72,1310.84 1346.16,1313.64L1339,1302C1342.96,1299.57 1346.7,1296.84 1350.22,1293.84ZM1326.66,1308.31L1331.9,1320.93C1327,1322.96 1321.91,1324.62 1316.66,1325.88L1313.48,1312.59C1318.02,1311.5 1322.42,1310.07 1326.66,1308.31ZM1299.78,1314.75L1300.84,1328.37C1298.2,1328.58 1295.54,1328.68 1292.84,1328.68L1292.84,1315.02C1295.18,1315.02 1297.49,1314.93 1299.78,1314.75Z" style="fill:white;"/>
                </g>
            </g>
        </g>
        <g transform="matrix(0.997027,0,0,1,4.46583,0.441636)">
            <path d="M2546.46,800.929L2546.46,1657.18L959.611,1657.18L959.611,800.929L2546.46,800.929ZM2533.92,813.429L972.148,813.429L972.148,1644.68L2533.92,1644.68L2533.92,813.429Z" style="fill:white;"/>
        </g>
        <g id="center" transform="matrix(1,0,0,1,0.612786,0.441636)">
            <g transform="matrix(0.983393,0,0,0.983393,28.5195,13.9318)">
                <path d="M1752.17,1139.97C1804.66,1139.97 1847.28,1182.58 1847.28,1235.07C1847.28,1287.56 1804.66,1330.18 1752.17,1330.18C1699.68,1330.18 1657.07,1287.56 1657.07,1235.07C1657.07,1182.58 1699.68,1139.97 1752.17,1139.97ZM1752.17,1152.68C1706.7,1152.68 1669.78,1189.6 1669.78,1235.07C1669.78,1280.55 1706.7,1317.47 1752.17,1317.47C1797.65,1317.47 1834.57,1280.55 1834.57,1235.07C1834.57,1189.6 1797.65,1152.68 1752.17,1152.68Z" style="fill:white;"/>
            </g>
            <g transform="matrix(1,0,0,1,-1.9094,0)">
                <path d="M1753.5,809.113L1753.5,1650.91" style="fill:none;stroke:white;stroke-width:12.5px;"/>
            </g>
        </g>
    </g>
</svg>
